<?xml version="1.0" encoding="utf-8"?>
<!-- Generator: Adobe Illustrator 19.0.0, SVG Export Plug-In . SVG Version: 6.00 Build 0)  -->
<svg version="1.1" id="Layer_1" xmlns="http://www.w3.org/2000/svg" xmlns:xlink="http://www.w3.org/1999/xlink" x="0px" y="0px"
   viewBox="0 0 1920 1080" style="enable-background:new 0 0 1920 1080;" xml:space="preserve">
<style type="text/css">
  #Layer_1 {fill: #e6e6e6;}
  .st0{fill:none;stroke:#e6e6e6;stroke-width:5;stroke-miterlimit:10;}
</style>
<path id="XMLID_63_" class="st0" d="M773.7,637.8L773.7,637.8c-53.8,0-97.5-43.7-97.5-97.5v0c0-53.8,43.7-97.5,97.5-97.5h0
  c53.8,0,97.5,43.7,97.5,97.5v0C871.2,594.2,827.5,637.8,773.7,637.8z"/>
<g id="XMLID_62_">
  <g id="XMLID_77_">
    <path id="XMLID_78_" d="M773.7,448.9L773.7,448.9c-50.5,0-91.4,40.9-91.4,91.4v0c0,50.5,40.9,91.4,91.4,91.4h0
      c3.2,0,6.4-0.2,9.5-0.5c-3-1.9-5.3-5-6.5-9.4c-0.9-3.3-1.3-6.9-1.3-10.4c-0.1-12.4,0-24.8,0-37.1c-6,3.9-13.2,6.1-20.9,6.1
      c-21.3,0-38.6-17.3-38.6-38.6c0-21.3,17.3-38.6,38.6-38.6c20.9,0,38,16.7,38.6,37.4l0,0l0.1,67.6c0.1,9,4.7,14.3,13.6,14.9
      c2.3,0.1,4.8-0.1,8.2-1.2c29.8-15.1,50.2-46,50.2-81.6v0C865.1,489.8,824.2,448.9,773.7,448.9z M734,540.6
      c0,11.4,9.2,20.6,20.6,20.6s20.6-9.2,20.6-20.6c0-11.4-9.2-20.6-20.6-20.6S734,529.3,734,540.6z"/>
  </g>
</g>
<g id="XMLID_16_">
  <path id="XMLID_17_" d="M927.3,532l2.8,2.9l-4.8,4.7l-3.2-3.2c-2,0.9-4.2,1.4-6.7,1.4c-8.2,0-13.9-4.9-13.9-13.2
    c0-8.3,5.7-13.2,13.9-13.2c8.3,0,13.9,4.9,13.9,13.2C929.5,527.3,928.7,529.9,927.3,532z M915.5,517.4c-4,0-6.9,3-6.9,7.1
    c0,4.4,2.8,7.1,6.9,7.1c4.2,0,6.8-2.7,6.8-7.1C922.3,520.3,919.7,517.4,915.5,517.4z"/>
  <path id="XMLID_21_" d="M956.6,512V526c0,7.5-4.5,11.6-11.9,11.6c-7.4,0-11.9-4-11.9-11.7v-14h7.1v14c0,4,1.9,5.6,4.8,5.6
    c2.9,0,4.8-1.7,4.8-5.5V512H956.6z"/>
  <path id="XMLID_23_" d="M983.9,533.8c-2.8,2.8-6.3,3.9-10.1,3.9c-9.9,0-13.8-6.2-13.8-13.1c0-6.5,4.3-13.4,13.8-13.4
    c3.6,0,6.9,1.3,9.8,4l-4.4,4.3c-1.8-1.7-3.7-2.2-5.4-2.2c-4.9,0-6.8,4-6.7,7.2c0,3.3,1.8,7,6.7,7c1.7,0,4.1-0.7,5.9-2.6
    L983.9,533.8z"/>
  <path id="XMLID_26_" d="M1003,537.2v-9.5h-9.1v9.5h-7.1V512h7.1v9.6h9.1V512h7.1v25.2H1003z"/>
  <path id="XMLID_34_" d="M1032.6,533h-11.3l-1.7,4.1h-7.6l11.3-25.2h7.2l11.3,25.2h-7.6L1032.6,533z M1026.9,519l-3.2,8h6.4
    L1026.9,519z"/>
  <path id="XMLID_37_" d="M1055.6,537.7c-8.2,0-14-4.8-14-13.2c0-8.3,5.8-13.2,14-13.2c8.3,0,14,4.8,14,13.2
    C1069.6,532.9,1063.9,537.7,1055.6,537.7z M1055.6,517.4c-4.1,0-6.9,3-6.9,7.1c0,4.2,2.8,7.1,6.9,7.1c4.2,0,6.9-3,6.9-7.1
    C1062.5,520.2,1059.8,517.4,1055.6,517.4z"/>
  <path id="XMLID_40_" d="M1091.5,519.4c-1.8-1.7-4.1-2.2-5.8-2.2c-4.1,0-6.8,2.4-6.8,7.4c0,3.2,1.7,7.2,6.8,7.2
    c1.3,0,3.4-0.3,4.9-1.3v-3.2h-6.4v-5.6h12.3v11.2c-1.6,3.2-6,4.9-10.8,4.9c-10,0-13.8-6.7-13.8-13.2s4.3-13.4,13.8-13.4
    c3.5,0,6.6,0.7,9.9,4.1L1091.5,519.4z"/>
  <path id="XMLID_42_" d="M1124,512V526c0,7.5-4.5,11.6-11.9,11.6s-11.9-4-11.9-11.7v-14h7.1v14c0,4,1.9,5.6,4.8,5.6s4.8-1.7,4.8-5.5
    V512H1124z"/>
  <path id="XMLID_45_" d="M1130.7,530.9c4.8,0,4.8,6.5,0,6.5C1126,537.4,1125.9,530.9,1130.7,530.9z"/>
  <path id="XMLID_47_" d="M1160.4,533.8c-2.8,2.8-6.3,3.9-10.1,3.9c-9.9,0-13.8-6.2-13.8-13.1c0-6.5,4.3-13.4,13.8-13.4
    c3.6,0,6.9,1.3,9.8,4l-4.4,4.3c-1.8-1.7-3.7-2.2-5.4-2.2c-4.9,0-6.8,4-6.7,7.2c0,3.3,1.8,7,6.7,7c1.7,0,4.1-0.7,5.9-2.6
    L1160.4,533.8z"/>
  <path id="XMLID_49_" d="M1175.2,537.7c-8.2,0-14-4.8-14-13.2c0-8.3,5.8-13.2,14-13.2c8.3,0,14,4.8,14,13.2
    C1189.2,532.9,1183.5,537.7,1175.2,537.7z M1175.2,517.4c-4.1,0-6.9,3-6.9,7.1c0,4.2,2.8,7.1,6.9,7.1c4.2,0,6.9-3,6.9-7.1
    C1182.1,520.2,1179.4,517.4,1175.2,517.4z"/>
  <path id="XMLID_52_" d="M1214,522.1l-6.4,7.6h-1.3l-6.3-7.6v15h-7.1v-25.2h7.5l6.6,8.5l6.6-8.5h7.4v25.2h-7.1V522.1z"/>
</g>
<g id="XMLID_1_">
  <path id="XMLID_2_" d="M924.9,575.6h-4.1v-2.7c-2.2,0.3-2.5,0.3-0.8,0.1c-1.7,0.2-3.8,0.5-6.3,0.8l-0.3-2h-1.7v3.8
    c1.4,0.4,3.2,0.6,5.5,0.6c7.2,0,13.4,0,18.4,0c-0.4,1-0.8,2.5-1.4,4.4c-6.9,0-12.7,0-17.2-0.1c-5.8,0.3-9.6-1.1-11.4-4.1
    c-0.2,0.8-0.6,2.2-1.1,4.1c-0.1,0.4-0.2,0.7-0.3,1c-0.4-0.5-1-1.3-2-2.5c-0.6-0.8-0.9-1.3-1.1-1.5c0.8-2.1,1.3-6.2,1.4-12.5
    l3.8,0.4c0,1.8,0,3.4-0.1,4.8c0.4,0.9,0.8,1.8,1.4,2.5v-9h-6V559h4.4v-3.1h-3.5v-4.5h3.5v-3.9h4.6v3.9h2.4v4.5h-2.4v3.1h3.1v4.6h-2
    v3.7h1.8v2c0.4-0.1,0.7-0.1,1-0.1v-16.3h-0.8v-3.9h12v3.9h-0.7v3.9l3.1-1.3c0.7,1.4,1.4,2.8,2,4.1c0.3-1.4,0.5-3,0.7-4.9h-4.8v-4.8
    h9c-0.3,6.4-1,11.5-2.2,15.5c1.1,2.2,2.2,4.5,3.1,6.8l-3.4,2.8c-0.6-1.4-1.2-2.9-1.8-4.4c-0.8,1.5-1.9,3.2-3.2,5.1
    c-0.1-0.3-0.3-0.7-0.6-1.1c-0.5-1-0.8-1.8-1.1-2.2c-0.2,0-0.4,0-0.7,0V575.6z M918.6,552.8v2.7h2.2v-2.7H918.6z M918.6,559.3v2.7
    h2.2v-2.7H918.6z M918.6,568.5c0.7,0,1.5-0.1,2.2-0.3v-2.5h-2.2V568.5z M926.2,567.6v1.7c0.8-1.4,1.5-2.7,2.1-3.9
    c-0.9-2.4-2.1-5-3.4-7.6v10.1c0.2-0.1,0.4-0.1,0.7-0.1C925.9,567.6,926.1,567.6,926.2,567.6z"/>
  <path id="XMLID_8_" d="M957.7,547.6h5.3v6l3.7-1.7c0.1,0.2,0.3,0.5,0.6,1c2.2,3.9,3.8,6.8,4.8,8.6l-4.6,2.8
    c-0.8-1.3-1.7-3.1-2.8-5.5c-0.7-1.4-1.2-2.5-1.5-3.2v11.1c0.8-1,1.6-2.1,2.2-3.2l4.6,3.2c-4.4,6.5-10.4,11.4-18,14.8
    c-1.5-2.4-2.6-4-3.2-4.8c6-2.5,10.2-5.2,12.7-8h-3.7v-14.2c-0.3,0.8-0.7,2.2-1.1,4.1c-1.1,4-2,6.9-2.5,8.7l-5.1-1.7
    c0.8-2.4,1.7-5,2.5-7.7c-1.4,1.1-2.8,2.2-4.2,3.4c0,1.7-0.1,3.3-0.3,4.8c2.6,3,4.4,5,5.2,6l-3.9,3.9c-0.8-1.3-1.5-2.7-2.4-4.1
    c-0.8,2.6-2.3,5.6-4.5,9c-1.8-2.1-3.1-3.4-4.1-3.9c2.9-3.7,4.5-7.8,4.8-12.4l-3,0.6c-0.3-2-0.9-5.4-2-10.3l3.5-0.8
    c0.5,2.3,1,5.2,1.5,8.4c0-0.6,0-1,0-1.4c0-1.6,0-3.9,0.1-6.9c0-2.9,0-5.1,0-6.5h5.2c0,2.5,0,5.1,0,7.6c0.9-1,1.7-1.9,2.2-2.7
    l2.4,2.8c0.1-0.4,0.2-0.8,0.4-1.4c0.1-0.7,0.2-1.1,0.3-1.4l4.8,1.3V547.6z"/>
  <path id="XMLID_10_" d="M1005.4,555.2h2.4c-0.3,1.5-0.6,3.1-0.8,4.8c-0.8,0-2.2,0-3.9,0c-2.7,0-4.1-1.4-4.1-4.2v-2.1h-3.8
    c0.1,2.9-1.4,5.4-4.4,7.6c-0.7-0.7-1.9-1.9-3.7-3.5v18.6c2.2-0.7,4.1-1.4,5.6-2.2c-1.4-1.6-2.8-3.4-4.2-5.5l3.5-2.2h-3.8v-4.9h18.1
    v5.2c-1.4,2.9-3,5.4-4.9,7.5c1.7,0.9,3.8,1.7,6.3,2.2c-1,1.5-1.9,3.1-2.7,4.8c-3.3-1.1-6-2.3-8-3.7c-2.3,1.6-5.1,2.9-8.3,3.8
    c-0.6-1.2-1.2-2.4-1.8-3.7c-0.3,1.7-1.3,2.6-3.1,2.8c-1,0.2-2.5,0.3-4.4,0.3c-0.1-0.4-0.2-1.1-0.4-2.1c-0.2-0.9-0.3-1.6-0.4-2
    c-0.4,1.5-1,3.1-1.8,4.9c-0.5-0.7-1.3-1.6-2.5-2.8c-0.8-0.8-1.2-1.3-1.4-1.5c0.8-1.7,1.4-3.6,1.7-5.8c0.3-2.2,0.4-5.8,0.4-11v-11.8
    h12.1v8.9c2-1,3-2.6,3.1-4.8c0-0.2,0-0.6,0-1.3c0.1-1.1,0.1-2,0.1-2.7h13.6v4.9C1003.9,554.7,1004.4,555.2,1005.4,555.2z
     M980.7,576.1c1.1,0,1.6-0.6,1.5-1.8v-3.4h-2.8c-0.1,2.2-0.3,3.9-0.7,5.1c0.2,0,0.5,0,0.8,0C980.1,576.1,980.5,576.1,980.7,576.1z
     M982.3,553.2h-2.5v4.5h2.5V553.2z M979.8,563.3c0,1.1,0,2.2,0,3.2h2.5v-4.5h-2.5V563.3z M993.1,566.3c1.2,2,2.5,3.6,3.9,4.8
    c1.4-1.4,2.6-3,3.5-4.8H993.1z"/>
</g>
</svg>
