<svg xmlns="http://www.w3.org/2000/svg" fill="#7d7d7d" viewBox="0 0 30.000001 29.999999" enable-background="new 0 0 595.3 841.9" width="30" height="30"><path d="M17.948 5.54L7.705 15.468s-.942 1.36-1.67 3.24c-1.255 3.03.314 4.6 1.15 5.226.626.418 4.705 1.045 6.376-.524l10.77-10.767.11-3.866-6.49-3.237zm5.333 7.004l-9.61 9.616c-1.77 1.777-5.43 1.36-6.16.836-.42-.315-1.462-1.987-.63-3.764.838-1.986 1.57-3.24 1.57-3.24l9.515-9.407 5.435 3.03-.107 2.93zm-.52-2.822l-9.2 9.095-5.22-3.034-.31.627 5.124 2.928c-.105.524-.626 1.986-1.252 3.03-1.043 1.57-2.61 1.672-2.61 1.672l.94.418s1.152.106 2.09-1.36c.94-1.465 1.57-3.345 1.57-3.345l9.824-9.617-.94-.414zm1.46-.942l-5.02 4.91v3.453l5.02-4.497zm-6.27-3.24l-4.81 4.702 6.17 3.45 5.02-4.81z"></path></svg>