<?xml version="1.0" encoding="utf-8"?>
<!-- Generator: Adobe Illustrator 19.0.0, SVG Export Plug-In . SVG Version: 6.00 Build 0)  -->
<svg version="1.1" id="Layer_1" xmlns="http://www.w3.org/2000/svg" xmlns:xlink="http://www.w3.org/1999/xlink" x="0px" y="0px"
   viewBox="0 0 70 70" style="enable-background:new 0 0 70 70;" xml:space="preserve">
<style type="text/css">
  .st0{fill:#FFFFFF;}
</style>
<g>
  <g>
    <path class="st0" d="M35,70.1c19.3,0,35-15.7,35-35s-15.7-35-35-35S0,15.8,0,35.1S15.7,70.1,35,70.1z M35,3.6
      c17.4,0,31.5,14.1,31.5,31.5S52.4,66.6,35,66.6S3.5,52.4,3.5,35.1S17.6,3.6,35,3.6z"/>
    <path class="st0" d="M35,70.1c19.3,0,35-15.7,35-35s-15.7-35-35-35S0,15.8,0,35.1S15.7,70.1,35,70.1z M35,3.6
      c17.4,0,31.5,14.1,31.5,31.5S52.4,66.6,35,66.6S3.5,52.4,3.5,35.1S17.6,3.6,35,3.6z"/>
    <path class="st0" d="M35,70.1c19.3,0,35-15.7,35-35s-15.7-35-35-35S0,15.8,0,35.1S15.7,70.1,35,70.1z M35,3.6
      c17.4,0,31.5,14.1,31.5,31.5S52.4,66.6,35,66.6S3.5,52.4,3.5,35.1S17.6,3.6,35,3.6z"/>
    <path class="st0" d="M35,69.1c-18.7,0-34-15.3-34-34s15.3-34,34-34c18.7,0,34,15.3,34,34S53.7,69.1,35,69.1z M35,2.6
      C17.1,2.6,2.5,17.2,2.5,35.1S17.1,67.6,35,67.6c17.9,0,32.5-14.6,32.5-32.5S52.9,2.6,35,2.6z"/>
    <path class="st0" d="M35,69.1c-18.7,0-34-15.3-34-34s15.3-34,34-34c18.7,0,34,15.3,34,34S53.7,69.1,35,69.1z M35,2.6
      C17.1,2.6,2.5,17.2,2.5,35.1S17.1,67.6,35,67.6c17.9,0,32.5-14.6,32.5-32.5S52.9,2.6,35,2.6z"/>
    <path class="st0" d="M35,69.1c-18.7,0-34-15.3-34-34s15.3-34,34-34c18.7,0,34,15.3,34,34S53.7,69.1,35,69.1z M35,2.6
      C17.1,2.6,2.5,17.2,2.5,35.1S17.1,67.6,35,67.6c17.9,0,32.5-14.6,32.5-32.5S52.9,2.6,35,2.6z"/>
    <path class="st0" d="M35,69.1c-18.7,0-34-15.3-34-34s15.3-34,34-34c18.7,0,34,15.3,34,34S53.7,69.1,35,69.1z M35,2.6
      C17.1,2.6,2.5,17.2,2.5,35.1S17.1,67.6,35,67.6c17.9,0,32.5-14.6,32.5-32.5S52.9,2.6,35,2.6z"/>
    <path class="st0" d="M35,69.1c-18.7,0-34-15.3-34-34s15.3-34,34-34c18.7,0,34,15.3,34,34S53.7,69.1,35,69.1z M35,2.6
      C17.1,2.6,2.5,17.2,2.5,35.1S17.1,67.6,35,67.6c17.9,0,32.5-14.6,32.5-32.5S52.9,2.6,35,2.6z"/>
    <path class="st0" d="M35,69.1c-18.7,0-34-15.3-34-34s15.3-34,34-34c18.7,0,34,15.3,34,34S53.7,69.1,35,69.1z M35,2.6
      C17.1,2.6,2.5,17.2,2.5,35.1S17.1,67.6,35,67.6c17.9,0,32.5-14.6,32.5-32.5S52.9,2.6,35,2.6z"/>
    <path class="st0" d="M35,69.1c-18.7,0-34-15.3-34-34s15.3-34,34-34c18.7,0,34,15.3,34,34S53.7,69.1,35,69.1z M35,2.6
      C17.1,2.6,2.5,17.2,2.5,35.1S17.1,67.6,35,67.6c17.9,0,32.5-14.6,32.5-32.5S52.9,2.6,35,2.6z"/>
    <path class="st0" d="M35,69.1c-18.7,0-34-15.3-34-34s15.3-34,34-34c18.7,0,34,15.3,34,34S53.7,69.1,35,69.1z M35,2.6
      C17.1,2.6,2.5,17.2,2.5,35.1S17.1,67.6,35,67.6c17.9,0,32.5-14.6,32.5-32.5S52.9,2.6,35,2.6z"/>
    <path class="st0" d="M35,69.1c-18.7,0-34-15.3-34-34s15.3-34,34-34c18.7,0,34,15.3,34,34S53.7,69.1,35,69.1z M35,2.6
      C17.1,2.6,2.5,17.2,2.5,35.1S17.1,67.6,35,67.6c17.9,0,32.5-14.6,32.5-32.5S52.9,2.6,35,2.6z"/>
    <path class="st0" d="M35,69.1c-18.7,0-34-15.3-34-34s15.3-34,34-34c18.7,0,34,15.3,34,34S53.7,69.1,35,69.1z M35,2.6
      C17.1,2.6,2.5,17.2,2.5,35.1S17.1,67.6,35,67.6c17.9,0,32.5-14.6,32.5-32.5S52.9,2.6,35,2.6z"/>
    <path class="st0" d="M35,69.1c-18.7,0-34-15.3-34-34s15.3-34,34-34c18.7,0,34,15.3,34,34S53.7,69.1,35,69.1z M35,2.6
      C17.1,2.6,2.5,17.2,2.5,35.1S17.1,67.6,35,67.6c17.9,0,32.5-14.6,32.5-32.5S52.9,2.6,35,2.6z"/>
    <path class="st0" d="M35,69.1c-18.7,0-34-15.3-34-34s15.3-34,34-34c18.7,0,34,15.3,34,34S53.7,69.1,35,69.1z M35,2.6
      C17.1,2.6,2.5,17.2,2.5,35.1S17.1,67.6,35,67.6c17.9,0,32.5-14.6,32.5-32.5S52.9,2.6,35,2.6z"/>
    <path class="st0" d="M35,69.1c-18.7,0-34-15.3-34-34s15.3-34,34-34c18.7,0,34,15.3,34,34S53.7,69.1,35,69.1z M35,1.1
      c-18.7,0-34,15.3-34,34s15.3,34,34,34c18.7,0,34-15.3,34-34S53.7,1.1,35,1.1z"/>
    <path class="st0" d="M19.8,36.8H46l-6.9,6.9c-0.7,0.7-0.7,1.8,0,2.5c0.3,0.3,0.8,0.5,1.2,0.5s0.9-0.2,1.2-0.5l9.8-9.8
      c0.7-0.7,0.7-1.8,0-2.5L41.6,24c-0.7-0.7-1.8-0.7-2.5,0s-0.7,1.8,0,2.5l6.9,6.9H19.8c-1,0-1.8,0.8-1.8,1.8
      C18,36.1,18.8,36.8,19.8,36.8z"/>
    <path class="st0" d="M19.8,36.8H46l-6.9,6.9c-0.7,0.7-0.7,1.8,0,2.5c0.3,0.3,0.8,0.5,1.2,0.5s0.9-0.2,1.2-0.5l9.8-9.8
      c0.7-0.7,0.7-1.8,0-2.5L41.6,24c-0.7-0.7-1.8-0.7-2.5,0s-0.7,1.8,0,2.5l6.9,6.9H19.8c-1,0-1.8,0.8-1.8,1.8
      C18,36.1,18.8,36.8,19.8,36.8z"/>
    <path class="st0" d="M19.8,36.8H46l-6.9,6.9c-0.7,0.7-0.7,1.8,0,2.5c0.3,0.3,0.8,0.5,1.2,0.5s0.9-0.2,1.2-0.5l9.8-9.8
      c0.7-0.7,0.7-1.8,0-2.5L41.6,24c-0.7-0.7-1.8-0.7-2.5,0s-0.7,1.8,0,2.5l6.9,6.9H19.8c-1,0-1.8,0.8-1.8,1.8
      C18,36.1,18.8,36.8,19.8,36.8z"/>
    <path class="st0" d="M19.8,36.8H46l-6.9,6.9c-0.7,0.7-0.7,1.8,0,2.5c0.3,0.3,0.8,0.5,1.2,0.5s0.9-0.2,1.2-0.5l9.8-9.8
      c0.7-0.7,0.7-1.8,0-2.5L41.6,24c-0.7-0.7-1.8-0.7-2.5,0s-0.7,1.8,0,2.5l6.9,6.9H19.8c-1,0-1.8,0.8-1.8,1.8
      C18,36.1,18.8,36.8,19.8,36.8z"/>
    <path class="st0" d="M40.4,45.7c-0.1,0-0.4,0-0.5-0.2c-0.1-0.1-0.2-0.3-0.2-0.5s0.1-0.4,0.2-0.5l8.6-8.6H19.8
      c-0.4,0-0.8-0.3-0.8-0.7c0-0.4,0.3-0.8,0.8-0.8h28.6l-8.6-8.6c-0.1-0.1-0.2-0.3-0.2-0.5c0-0.2,0.1-0.4,0.2-0.5s0.3-0.2,0.5-0.2
      c0.2,0,0.4,0.1,0.5,0.2l9.8,9.8c0.3,0.3,0.3,0.8,0,1.1l-9.8,9.8C40.7,45.6,40.5,45.7,40.4,45.7z"/>
    <path class="st0" d="M40.4,45.7c-0.1,0-0.4,0-0.5-0.2c-0.1-0.1-0.2-0.3-0.2-0.5s0.1-0.4,0.2-0.5l8.6-8.6H19.8
      c-0.4,0-0.8-0.3-0.8-0.7c0-0.4,0.3-0.8,0.8-0.8h28.6l-8.6-8.6c-0.1-0.1-0.2-0.3-0.2-0.5c0-0.2,0.1-0.4,0.2-0.5s0.3-0.2,0.5-0.2
      c0.2,0,0.4,0.1,0.5,0.2l9.8,9.8c0.3,0.3,0.3,0.8,0,1.1l-9.8,9.8C40.7,45.6,40.5,45.7,40.4,45.7z"/>
    <path class="st0" d="M40.4,45.7c-0.1,0-0.4,0-0.5-0.2c-0.1-0.1-0.2-0.3-0.2-0.5s0.1-0.4,0.2-0.5l8.6-8.6H19.8
      c-0.4,0-0.8-0.3-0.8-0.7c0-0.4,0.3-0.8,0.8-0.8h28.6l-8.6-8.6c-0.1-0.1-0.2-0.3-0.2-0.5c0-0.2,0.1-0.4,0.2-0.5s0.3-0.2,0.5-0.2
      c0.2,0,0.4,0.1,0.5,0.2l9.8,9.8c0.3,0.3,0.3,0.8,0,1.1l-9.8,9.8C40.7,45.6,40.5,45.7,40.4,45.7z"/>
    <path class="st0" d="M40.4,45.7c-0.1,0-0.4,0-0.5-0.2c-0.1-0.1-0.2-0.3-0.2-0.5s0.1-0.4,0.2-0.5l8.6-8.6H19.8
      c-0.4,0-0.8-0.3-0.8-0.7c0-0.4,0.3-0.8,0.8-0.8h28.6l-8.6-8.6c-0.1-0.1-0.2-0.3-0.2-0.5c0-0.2,0.1-0.4,0.2-0.5s0.3-0.2,0.5-0.2
      c0.2,0,0.4,0.1,0.5,0.2l9.8,9.8c0.3,0.3,0.3,0.8,0,1.1l-9.8,9.8C40.7,45.6,40.5,45.7,40.4,45.7z"/>
    <path class="st0" d="M40.4,45.7c-0.1,0-0.4,0-0.5-0.2c-0.1-0.1-0.2-0.3-0.2-0.5s0.1-0.4,0.2-0.5l8.6-8.6H19.8
      c-0.4,0-0.8-0.3-0.8-0.7c0-0.4,0.3-0.8,0.8-0.8h28.6l-8.6-8.6c-0.1-0.1-0.2-0.3-0.2-0.5c0-0.2,0.1-0.4,0.2-0.5s0.3-0.2,0.5-0.2
      c0.2,0,0.4,0.1,0.5,0.2l9.8,9.8c0.3,0.3,0.3,0.8,0,1.1l-9.8,9.8C40.7,45.6,40.5,45.7,40.4,45.7z"/>
    <path class="st0" d="M40.4,45.7c-0.1,0-0.4,0-0.5-0.2c-0.1-0.1-0.2-0.3-0.2-0.5s0.1-0.4,0.2-0.5l8.6-8.6H19.8
      c-0.4,0-0.8-0.3-0.8-0.7c0-0.4,0.3-0.8,0.8-0.8h28.6l-8.6-8.6c-0.1-0.1-0.2-0.3-0.2-0.5c0-0.2,0.1-0.4,0.2-0.5s0.3-0.2,0.5-0.2
      c0.2,0,0.4,0.1,0.5,0.2l9.8,9.8c0.3,0.3,0.3,0.8,0,1.1l-9.8,9.8C40.7,45.6,40.5,45.7,40.4,45.7z"/>
    <path class="st0" d="M40.4,45.7c-0.1,0-0.4,0-0.5-0.2c-0.1-0.1-0.2-0.3-0.2-0.5s0.1-0.4,0.2-0.5l8.6-8.6H19.8
      c-0.4,0-0.8-0.3-0.8-0.7c0-0.4,0.3-0.8,0.8-0.8h28.6l-8.6-8.6c-0.1-0.1-0.2-0.3-0.2-0.5c0-0.2,0.1-0.4,0.2-0.5s0.3-0.2,0.5-0.2
      c0.2,0,0.4,0.1,0.5,0.2l9.8,9.8c0.3,0.3,0.3,0.8,0,1.1l-9.8,9.8C40.7,45.6,40.5,45.7,40.4,45.7z"/>
    <path class="st0" d="M40.4,45.7c-0.1,0-0.4,0-0.5-0.2c-0.1-0.1-0.2-0.3-0.2-0.5s0.1-0.4,0.2-0.5l8.6-8.6H19.8
      c-0.4,0-0.8-0.3-0.8-0.7c0-0.4,0.3-0.8,0.8-0.8h28.6l-8.6-8.6c-0.1-0.1-0.2-0.3-0.2-0.5c0-0.2,0.1-0.4,0.2-0.5s0.3-0.2,0.5-0.2
      c0.2,0,0.4,0.1,0.5,0.2l9.8,9.8c0.3,0.3,0.3,0.8,0,1.1l-9.8,9.8C40.7,45.6,40.5,45.7,40.4,45.7z"/>
    <path class="st0" d="M40.4,45.7c-0.1,0-0.4,0-0.5-0.2c-0.1-0.1-0.2-0.3-0.2-0.5s0.1-0.4,0.2-0.5l8.6-8.6H19.8
      c-0.4,0-0.8-0.3-0.8-0.7c0-0.4,0.3-0.8,0.8-0.8h28.6l-8.6-8.6c-0.1-0.1-0.2-0.3-0.2-0.5c0-0.2,0.1-0.4,0.2-0.5s0.3-0.2,0.5-0.2
      c0.2,0,0.4,0.1,0.5,0.2l9.8,9.8c0.3,0.3,0.3,0.8,0,1.1l-9.8,9.8C40.7,45.6,40.5,45.7,40.4,45.7z"/>
    <path class="st0" d="M40.4,45.7c-0.1,0-0.4,0-0.5-0.2c-0.1-0.1-0.2-0.3-0.2-0.5s0.1-0.4,0.2-0.5l8.6-8.6H19.8
      c-0.4,0-0.8-0.3-0.8-0.7c0-0.4,0.3-0.8,0.8-0.8h28.6l-8.6-8.6c-0.1-0.1-0.2-0.3-0.2-0.5c0-0.2,0.1-0.4,0.2-0.5s0.3-0.2,0.5-0.2
      c0.2,0,0.4,0.1,0.5,0.2l9.8,9.8c0.3,0.3,0.3,0.8,0,1.1l-9.8,9.8C40.7,45.6,40.5,45.7,40.4,45.7z"/>
    <path class="st0" d="M40.4,45.7c-0.1,0-0.4,0-0.5-0.2c-0.1-0.1-0.2-0.3-0.2-0.5s0.1-0.4,0.2-0.5l8.6-8.6H19.8
      c-0.4,0-0.8-0.3-0.8-0.7c0-0.4,0.3-0.8,0.8-0.8h28.6l-8.6-8.6c-0.1-0.1-0.2-0.3-0.2-0.5c0-0.2,0.1-0.4,0.2-0.5s0.3-0.2,0.5-0.2
      c0.2,0,0.4,0.1,0.5,0.2l9.8,9.8c0.3,0.3,0.3,0.8,0,1.1l-9.8,9.8C40.7,45.6,40.5,45.7,40.4,45.7z"/>
    <path class="st0" d="M40.4,45.7c-0.1,0-0.4,0-0.5-0.2c-0.1-0.1-0.2-0.3-0.2-0.5s0.1-0.4,0.2-0.5l8.6-8.6H19.8
      c-0.4,0-0.8-0.3-0.8-0.7c0-0.4,0.3-0.8,0.8-0.8h28.6l-8.6-8.6c-0.1-0.1-0.2-0.3-0.2-0.5c0-0.2,0.1-0.4,0.2-0.5s0.3-0.2,0.5-0.2
      c0.2,0,0.4,0.1,0.5,0.2l9.8,9.8c0.3,0.3,0.3,0.8,0,1.1l-9.8,9.8C40.7,45.6,40.5,45.7,40.4,45.7z"/>
  </g>
</g>
</svg>
