<?xml version="1.0" encoding="utf-8"?>
<!-- Generator: Adobe Illustrator 19.0.0, SVG Export Plug-In . SVG Version: 6.00 Build 0)  -->
<svg version="1.1" id="Layer_1" xmlns="http://www.w3.org/2000/svg" xmlns:xlink="http://www.w3.org/1999/xlink" x="0px" y="0px"
	 viewBox="0 0 114 114" style="enable-background:new 0 0 114 114;" xml:space="preserve">
<style type="text/css">
	.st0{fill:#FFFFFF;}
</style>
<g id="XMLID_2_">
	<g id="XMLID_63_">
		<path id="XMLID_3_" class="st0" d="M57,113.8C25.7,113.8,0.2,88.3,0.2,57C0.2,25.7,25.7,0.2,57,0.2c31.3,0,56.8,25.5,56.8,56.8
			C113.8,88.3,88.3,113.8,57,113.8z M57,1.8C26.6,1.8,1.8,26.6,1.8,57s24.8,55.2,55.2,55.2s55.2-24.8,55.2-55.2S87.4,1.8,57,1.8z"/>
	</g>
	<g id="XMLID_62_">
		<path id="XMLID_6_" class="st0" d="M57,4.5L57,4.5C28,4.5,4.5,28,4.5,57v0c0,29,23.5,52.5,52.5,52.5h0c1.8,0,3.7-0.1,5.4-0.3
			c-1.7-1.1-3-2.9-3.7-5.4c-0.5-1.9-0.7-4-0.8-6c0-7.1,0-14.2,0-21.3c-3.5,2.2-7.6,3.5-12,3.5c-12.2,0-22.2-9.9-22.2-22.2
			s9.9-22.2,22.2-22.2c12,0,21.8,9.6,22.2,21.5l0,0l0,38.8c0,5.1,2.7,8.2,7.8,8.5c1.3,0.1,2.7,0,4.7-0.7
			c17.1-8.6,28.9-26.4,28.9-46.9v0C109.5,28,86,4.5,57,4.5z M34.2,57.2C34.2,63.7,39.5,69,46,69s11.8-5.3,11.8-11.8
			S52.5,45.4,46,45.4S34.2,50.7,34.2,57.2z"/>
	</g>
</g>
</svg>
